<svg xmlns="http://www.w3.org/2000/svg" width="400" height="50.526" viewBox="0 0 400 50.526"><g fill-rule="evenodd"><path d="M11.665 21.792c-.003 11.825.002 11.794-1.9 12.885-2.446 1.403-4.848.008-5.269-3.059C4.374 30.728 4.2 30 4.109 30c-.186 0-2.161.309-2.734.428-.34.071-.375.174-.375 1.106 0 2.885 1.147 4.996 3.389 6.239 1.599.886 7.944.55 7.944-.421 0-.059.282-.282.625-.496.7-.435 1.41-1.483 1.937-2.856.343-.893.353-1.194.401-11.458L15.345 12h-3.678l-.002 9.792M21.5 25v13H41v-3.333H25.167v-8.5H39.5V23H25.167v-7.667h15.166V12H21.5v13m24.833 0v13H50V26.167h12.167V23H50v-7.667h14V12H46.333v13m22.834 0v13h3.5V26.167h12.166V23H72.667v-7.667h14V12h-17.5v13m22.5-.014V38h3.666V26.467l2.875.063c2.829.063 2.89.072 3.792.566.859.47 2.667 2.168 2.667 2.505 0 .083.337.563.75 1.066.412.503.75.97.75 1.039 0 .068.337.617.75 1.22.412.602.75 1.155.75 1.228 0 .074.21.398.467.721.257.324.801 1.159 1.208 1.856l.741 1.267 2.292.001c2.516.001 2.566-.024 1.875-.93-.229-.301-.417-.621-.417-.712 0-.091-.245-.489-.544-.886a27.729 27.729 0 01-1.264-1.92c-.395-.66-.825-1.288-.955-1.396-.13-.108-.237-.29-.237-.406 0-.607-2.913-4.096-4.125-4.939-.862-.6-.893-.81-.121-.81 1.186 0 3.601-1.378 4.549-2.595 1.23-1.581 1.273-1.728 1.265-4.322-.009-2.568-.05-2.723-1.146-4.279-1.774-2.52-2.398-2.665-11.88-2.758l-7.708-.075v13.015M118.5 25v13H138v-3.333h-15.833v-8.5H136.5V23h-14.333v-7.667h15.166V12H118.5v13m22-12.921c0 .044.506.842 1.125 1.774s1.275 1.932 1.458 2.222c.184.291.859 1.304 1.5 2.25.642.947 1.317 1.96 1.5 2.25.184.291.838 1.274 1.454 2.185l1.402 2.073.921 1.36.64.943V38h3.5V27.077l.667-.807c.366-.443.666-.9.666-1.015 0-.115.175-.389.388-.607.213-.219.789-.998 1.28-1.731a192.72 192.72 0 011.53-2.25c.35-.505 1.055-1.532 1.567-2.284.513-.752 1.037-1.455 1.167-1.562.129-.107.235-.275.235-.373 0-.097.337-.607.75-1.132.412-.525.75-1.002.75-1.059 0-.058.286-.495.636-.972.35-.478.691-.962.76-1.077.096-.162-.363-.206-2.094-.2l-2.219.007-.666 1.026a151.95 151.95 0 00-1 1.558c-.184.292-.901 1.383-1.595 2.425a159.798 159.798 0 00-1.583 2.409 109.1 109.1 0 01-.854 1.333c-.292.449-.852 1.319-1.244 1.933l-.713 1.115-.215-.449a13.138 13.138 0 00-.711-1.198 13.278 13.278 0 01-.697-1.167c-.111-.229-.417-.717-.681-1.083-.59-.819-1.666-2.46-3.607-5.498-1.656-2.593-1.377-2.419-3.879-2.419-1.176 0-2.138.036-2.138.079m-34.062 3.458c2.083 1.136 2.89 3.185 1.988 5.046-1.157 2.388-2.421 2.752-9.551 2.751l-3.542-.001v-8.195l5.292.057c4.605.05 5.359.094 5.813.342" fill="#202425"/><path d="M186.899 11.746c-3.107.716-5.597 2.212-7.029 4.221-.999 1.402-1.207 1.815-1.771 3.53-1.239 3.767-1.163 7.375.242 11.503.359 1.055 1.153 2.667 1.313 2.667.086 0 .209.168.273.375.437 1.419 3.994 3.749 6.293 4.122 6.964 1.13 12.4-1.808 13.848-7.485.325-1.274.368-1.228-1.475-1.571-.738-.138-1.46-.296-1.602-.351-.199-.078-.328.114-.55.819-1.627 5.162-6.69 7.168-11.311 4.48-3.401-1.978-4.645-6.345-3.652-12.819.134-.876.499-1.737 1.47-3.469.207-.369 1.668-1.67 2.385-2.123.7-.443 2.677-.869 4.084-.882 2.9-.025 4.962 1.174 6.083 3.54.291.612.589 1.226.662 1.364.195.366 3.838-.11 3.838-.502 0-.272-.848-2.217-1.153-2.646-.191-.268-.347-.537-.347-.598 0-.297-1.533-1.873-2.519-2.59-2.104-1.53-6.212-2.248-9.082-1.585m143.768-.13c-6.136 1.044-9.924 5.673-10.288 12.575-.133 2.521.702 6.758 1.539 7.809.11.137.374.569.588.958.214.39.45.709.525.709.074 0 .136.102.136.226 0 .743 3.285 3.076 5.595 3.973 1.481.576 6.844.569 8.238-.009 3.094-1.286 5.168-2.879 6.16-4.734.159-.297.483-.877.72-1.29.787-1.366 1.454-4.556 1.453-6.948 0-1.167-.16-2.322-.659-4.751-.136-.662-.672-1.829-1.631-3.551-.275-.494-2.239-2.56-2.666-2.806a56.593 56.593 0 01-1.133-.683c-2.013-1.239-5.972-1.921-8.577-1.478m28.333 0c-5.365.913-9.026 4.583-9.945 9.967-.681 3.991-.05 8.651 1.458 10.769.176.247.32.562.32.699 0 1.312 5.094 4.752 7.618 5.145 10.953 1.706 18.109-7.82 14.218-18.928-.671-1.916-3.228-5.435-3.949-5.435-.058 0-.337-.176-.621-.392-1.9-1.444-6.231-2.313-9.099-1.825M204.5 25v13h16.333v-3.333H208V12h-3.5v13m27.39-12.797c-.246.389-.92 2.04-1.004 2.464-.046.229-.216.716-.377 1.083-.162.367-.54 1.304-.84 2.083-.3.779-.868 2.242-1.262 3.25-.394 1.009-.806 2.134-.916 2.5-.111.367-.252.742-.315.834-.144.21-.892 2.119-1.175 3a17.473 17.473 0 01-.593 1.5 22.2 22.2 0 00-.749 2c-.204.641-.422 1.241-.484 1.333-.165.244-.949 2.225-1.186 3a15.787 15.787 0 01-.596 1.531c-.573 1.261-.628 1.219 1.604 1.219h1.997l.101-.458c.055-.252.432-1.303.836-2.335.405-1.031.736-1.97.736-2.086 0-.116.247-.809.548-1.541l.549-1.33 5.263-.044 5.263-.044.355.825c.195.454.356.923.358 1.044.002.12.34 1.006.75 1.967.411.962.747 1.816.747 1.898 0 .082.169.588.375 1.124l.375.975 2.06.003 2.06.002-.108-.576c-.059-.316-.432-1.31-.829-2.208-.397-.898-.778-1.82-.847-2.049-.122-.406-.367-.982-1.188-2.797-.219-.484-.398-.951-.398-1.038 0-.087-.325-.891-.722-1.787-.397-.896-.773-1.835-.836-2.087-.064-.253-.372-1.003-.686-1.667-.313-.664-.696-1.581-.849-2.037a24.46 24.46 0 00-.843-2.034c-.31-.663-.564-1.288-.564-1.39 0-.102-.375-1.031-.833-2.064-.459-1.033-.834-1.952-.834-2.041 0-.152-.507-1.33-.815-1.892-.186-.34-3.919-.458-4.128-.13m11.943-.115c0 .049.503.855 1.118 1.792.615.937 1.213 1.876 1.328 2.088.116.211.476.693.799 1.071.324.378.589.749.589.824 0 .17 1.199 1.867 1.373 1.943.069.03.127.156.127.278 0 .123.246.548.548.945.564.743 2.38 3.463 2.706 4.054.101.184.46.696.798 1.138l.614.805V38h3.667V26.996l.7-1.04c.386-.571.929-1.339 1.209-1.706.279-.367.583-.793.674-.948.438-.738 2.167-3.259 2.453-3.576a5.65 5.65 0 00.601-.855c.289-.514.704-1.11 2.086-2.995.444-.605.877-1.256.962-1.446.085-.191.453-.722.817-1.18.991-1.245.983-1.252-1.46-1.238l-2.125.012-.959 1.459c-.527.802-.958 1.54-.958 1.64 0 .101-.057.208-.127.238-.153.067-1.373 1.763-1.373 1.908 0 .056-.338.551-.75 1.1-.413.548-.75 1.065-.75 1.147 0 .082-.255.506-.566.942a19.973 19.973 0 00-1.025 1.625c-.253.459-.512.871-.576.917-.064.046-.211.263-.326.482-.206.39-.221.379-.735-.584-.289-.54-.73-1.251-.982-1.58-.251-.33-.457-.66-.457-.735 0-.146-.869-1.489-3.453-5.333-.616-.917-1.207-1.854-1.313-2.083-.512-1.111-.659-1.167-3.045-1.167-1.204 0-2.189.04-2.189.088m26.834 12.924v13.012l6.708-.067c7.141-.071 7.191-.076 9.082-.96.388-.182.766-.33.839-.33.303 0 1.72-1.653 2.194-2.558 1.627-3.113 1.186-6.432-1.14-8.561-.753-.689-.93-.8-1.933-1.211l-.5-.205.583-.441c3.413-2.579 3.569-7.976.292-10.042-.344-.217-.625-.442-.625-.501 0-.766-3.277-1.148-9.846-1.148h-5.654v13.012m24.5-.012v13h3.666V26.472l2.792.057c3.844.078 4.396.343 6.533 3.138.526.687 1.049 1.425 1.163 1.64.114.214.5.777.859 1.25.358.473.652.925.653 1.005 0 .08.325.605.722 1.167.397.561.767 1.145.822 1.296.055.152.375.658.71 1.125l.611.85h2.234c2.573 0 2.562.009 1.568-1.313-.367-.488-.667-.951-.667-1.029 0-.078-.337-.625-.75-1.215-.412-.59-.75-1.139-.75-1.22 0-.081-.215-.408-.477-.727a8.683 8.683 0 01-.792-1.163c-.448-.832-1.429-2.166-1.592-2.166-.076 0-.139-.1-.139-.223 0-.279-2.028-2.221-2.585-2.475-.578-.264-.517-.469.139-.469 1.929 0 4.887-2.098 5.565-3.947.484-1.32.548-1.67.548-3.013 0-2.191-.852-4.24-2.25-5.41-1.745-1.462-2.962-1.629-11.875-1.63h-6.708v13M378 25v13h3.5v-8.878l2.02-1.936c2.356-2.258 2.224-2.176 2.544-1.558.137.266.554.869.926 1.339.372.471.677.92.677.998 0 .078.248.436.552.797.303.36.912 1.196 1.352 1.858.44.663.905 1.291 1.031 1.396.127.105.231.277.231.381 0 .104.338.6.75 1.103.413.503.75.999.75 1.103 0 .104.111.281.246.394.136.112.67.834 1.187 1.603l.941 1.4h2.397c1.318 0 2.396-.047 2.396-.105 0-.215-.699-1.228-.847-1.228-.084 0-.153-.095-.153-.212 0-.116-.373-.66-.829-1.208-.456-.548-.831-1.054-.833-1.124-.003-.07-.323-.536-.713-1.036-1.649-2.115-2.058-2.663-2.349-3.153a7.019 7.019 0 00-.684-.934c-.208-.229-1.018-1.317-1.801-2.417-.782-1.1-1.58-2.143-1.773-2.317-.193-.175-.351-.415-.351-.533 0-.119-.187-.417-.415-.663l-.414-.447.464-.52c.256-.286.904-.932 1.44-1.436a613.005 613.005 0 007.237-7l1.602-1.584-2.493-.046-2.494-.046-6.297 6.295-6.297 6.296V12H378v13m-42.869-9.943c1.05.272 1.745.568 2.31.984.888.653 2.559 2.341 2.559 2.585 0 .085.217.597.483 1.139 1.883 3.838 1.167 10.107-1.469 12.847-4.727 4.915-12.942 2.574-14.451-4.118-.546-2.424-.258-7.194.534-8.827 1.099-2.268 2.954-3.937 4.986-4.486 2.282-.616 3.08-.636 5.048-.124m27.758-.143c1.234.261 2.645.855 3.224 1.355.2.173.631.524.959.78.327.256.595.565.595.688 0 .122.118.321.263.441 1.07.888 1.986 4.557 1.848 7.405-.305 6.293-3.54 9.727-8.997 9.552-2.144-.069-2.202-.087-4.511-1.42-2.396-1.384-3.857-4.965-3.726-9.132.081-2.559.128-2.781 1.145-5.423.328-.851 1.193-1.88 2.193-2.606.477-.347.962-.72 1.076-.83.202-.194 1.305-.558 2.642-.871.971-.228 2.018-.209 3.289.061m-52.898.65c2.513 1.365 3.048 4.25 1.156 6.233-1.208 1.264-2.754 1.536-8.737 1.536h-3.577v-8.195l5.292.057c4.79.052 5.346.086 5.866.369m-26.927-.026c2.414.722 3.265 4.378 1.414 6.079-1.084.997-1.734 1.123-6.103 1.187l-4.042.06V15.333h4.023c2.699 0 4.248.068 4.708.205m-47.725 4.196c.172.541.605 1.703.963 2.583.357.88.784 2.012.949 2.516.164.504.351.992.416 1.084.065.091.2.41.3.708l.182.542h-4.158c-2.287 0-4.158-.032-4.158-.07 0-.038.157-.432.349-.875.192-.443.494-1.273.673-1.845.178-.572.548-1.54.823-2.152.275-.612.566-1.382.648-1.711.082-.328.427-1.422.768-2.431.34-1.008.652-1.946.693-2.083.074-.252.97 1.905 1.552 3.734m48.244 6.686c2.129.769 3.012 2.067 2.889 4.249-.185 3.271-1.646 3.998-8.039 3.998h-4.1v-8.704l4.209.078c3.5.065 4.348.129 5.041.379" fill="#f09d51"/></g></svg>